<svg width="148" height="22" viewBox="0 0 148 22" fill="none" xmlns="http://www.w3.org/2000/svg">
<path d="M9.27344 5.39844C9.20052 4.71615 8.89323 4.1849 8.35156 3.80469C7.8151 3.42448 7.11719 3.23437 6.25781 3.23437C5.65365 3.23437 5.13542 3.32552 4.70313 3.50781C4.27083 3.6901 3.9401 3.9375 3.71094 4.25C3.48177 4.5625 3.36458 4.91927 3.35938 5.32031C3.35938 5.65365 3.4349 5.94271 3.58594 6.1875C3.74219 6.43229 3.95313 6.64062 4.21875 6.8125C4.48438 6.97917 4.77865 7.11979 5.10156 7.23437C5.42448 7.34896 5.75 7.44531 6.07813 7.52344L7.57813 7.89844C8.18229 8.03906 8.76302 8.22917 9.32031 8.46875C9.88281 8.70833 10.3854 9.01042 10.8281 9.375C11.276 9.73958 11.6302 10.1797 11.8906 10.6953C12.151 11.2109 12.2813 11.8151 12.2813 12.5078C12.2813 13.4453 12.0417 14.2708 11.5625 14.9844C11.0833 15.6927 10.3906 16.2474 9.48438 16.6484C8.58333 17.0443 7.49219 17.2422 6.21094 17.2422C4.96615 17.2422 3.88542 17.0495 2.96875 16.6641C2.05729 16.2786 1.34375 15.7161 0.828125 14.9766C0.317708 14.237 0.0416667 13.3359 2.98023e-08 12.2734H2.85156C2.89323 12.8307 3.0651 13.2943 3.36719 13.6641C3.66927 14.0339 4.0625 14.3099 4.54688 14.4922C5.03646 14.6745 5.58333 14.7656 6.1875 14.7656C6.81771 14.7656 7.36979 14.6719 7.84375 14.4844C8.32292 14.2917 8.69792 14.026 8.96875 13.6875C9.23958 13.3437 9.3776 12.9427 9.38281 12.4844C9.3776 12.0677 9.25521 11.724 9.01563 11.4531C8.77604 11.1771 8.4401 10.9479 8.00781 10.7656C7.58073 10.5781 7.08073 10.4115 6.50781 10.2656L4.6875 9.79687C3.36979 9.45833 2.32813 8.94531 1.5625 8.25781C0.802083 7.5651 0.421875 6.64583 0.421875 5.5C0.421875 4.55729 0.677083 3.73177 1.1875 3.02344C1.70313 2.3151 2.40365 1.76562 3.28906 1.375C4.17448 0.979166 5.17708 0.781249 6.29688 0.781249C7.43229 0.781249 8.42708 0.979166 9.28125 1.375C10.1406 1.76562 10.8151 2.3099 11.3047 3.00781C11.7943 3.70052 12.0469 4.4974 12.0625 5.39844H9.27344ZM14.7402 21.5V5H17.5215V6.98437H17.6855C17.8314 6.69271 18.0371 6.38281 18.3027 6.05469C18.5684 5.72135 18.9277 5.4375 19.3809 5.20312C19.834 4.96354 20.4121 4.84375 21.1152 4.84375C22.0423 4.84375 22.8783 5.08073 23.623 5.55469C24.373 6.02344 24.9668 6.71875 25.4043 7.64062C25.847 8.55729 26.0684 9.68229 26.0684 11.0156C26.0684 12.3333 25.8522 13.4531 25.4199 14.375C24.9876 15.2969 24.3991 16 23.6543 16.4844C22.9095 16.9688 22.0658 17.2109 21.123 17.2109C20.4355 17.2109 19.8652 17.0964 19.4121 16.8672C18.959 16.638 18.5944 16.362 18.3184 16.0391C18.0475 15.7109 17.8366 15.401 17.6855 15.1094H17.5684V21.5H14.7402ZM17.5137 11C17.5137 11.776 17.623 12.4557 17.8418 13.0391C18.0658 13.6224 18.3861 14.0781 18.8027 14.4062C19.2246 14.7292 19.735 14.8906 20.334 14.8906C20.959 14.8906 21.4824 14.724 21.9043 14.3906C22.3262 14.0521 22.6439 13.5911 22.8574 13.0078C23.0762 12.4193 23.1855 11.75 23.1855 11C23.1855 10.2552 23.0788 9.59375 22.8652 9.01562C22.6517 8.4375 22.334 7.98437 21.9121 7.65625C21.4902 7.32812 20.9642 7.16406 20.334 7.16406C19.7298 7.16406 19.2168 7.32292 18.7949 7.64062C18.373 7.95833 18.0527 8.40365 17.834 8.97656C17.6204 9.54948 17.5137 10.224 17.5137 11ZM28.4902 17V5H31.3184V17H28.4902ZM29.9121 3.29688C29.4642 3.29688 29.0788 3.14844 28.7559 2.85156C28.4329 2.54948 28.2715 2.1875 28.2715 1.76562C28.2715 1.33854 28.4329 0.976562 28.7559 0.679686C29.0788 0.377603 29.4642 0.226562 29.9121 0.226562C30.3652 0.226562 30.7507 0.377603 31.0684 0.679686C31.3913 0.976562 31.5527 1.33854 31.5527 1.76562C31.5527 2.1875 31.3913 2.54948 31.0684 2.85156C30.7507 3.14844 30.3652 3.29688 29.9121 3.29688ZM39.4609 17.2344C38.263 17.2344 37.2344 16.9714 36.375 16.4453C35.5208 15.9193 34.862 15.1927 34.3984 14.2656C33.9401 13.3333 33.7109 12.2604 33.7109 11.0469C33.7109 9.82812 33.9453 8.7526 34.4141 7.82031C34.8828 6.88281 35.5443 6.15365 36.3984 5.63281C37.2578 5.10677 38.2734 4.84375 39.4453 4.84375C40.4193 4.84375 41.2813 5.02344 42.0313 5.38281C42.7865 5.73698 43.388 6.23958 43.8359 6.89062C44.2839 7.53646 44.5391 8.29167 44.6016 9.15625H41.8984C41.7891 8.57812 41.5286 8.09635 41.1172 7.71094C40.7109 7.32031 40.1667 7.125 39.4844 7.125C38.9063 7.125 38.3984 7.28125 37.9609 7.59375C37.5234 7.90104 37.1823 8.34375 36.9375 8.92188C36.6979 9.5 36.5781 10.1927 36.5781 11C36.5781 11.8177 36.6979 12.5208 36.9375 13.1094C37.1771 13.6927 37.513 14.1432 37.9453 14.4609C38.3828 14.7734 38.8958 14.9297 39.4844 14.9297C39.901 14.9297 40.2734 14.8516 40.6016 14.6953C40.9349 14.5339 41.2135 14.3021 41.4375 14C41.6615 13.6979 41.8151 13.3307 41.8984 12.8984H44.6016C44.5339 13.7474 44.2839 14.5 43.8516 15.1562C43.4193 15.8073 42.8307 16.3177 42.0859 16.6875C41.3411 17.0521 40.4661 17.2344 39.4609 17.2344ZM48.6816 21.5C48.2962 21.5 47.9395 21.4688 47.6113 21.4063C47.2884 21.349 47.0306 21.2813 46.8379 21.2031L47.4941 19C47.9056 19.1198 48.2728 19.1771 48.5957 19.1719C48.9186 19.1667 49.2025 19.0651 49.4473 18.8672C49.6973 18.6745 49.9082 18.3516 50.0801 17.8984L50.3223 17.25L45.9707 5H48.9707L51.7363 14.0625H51.8613L54.6348 5H57.6426L52.8379 18.4531C52.6139 19.0885 52.3171 19.6328 51.9473 20.0859C51.5775 20.5443 51.1243 20.8932 50.5879 21.1328C50.0566 21.3776 49.4212 21.5 48.6816 21.5ZM67.8848 9.96875V17H65.0566V5H67.7598V7.03906H67.9004C68.1764 6.36719 68.6165 5.83333 69.2207 5.4375C69.8301 5.04167 70.5827 4.84375 71.4785 4.84375C72.3066 4.84375 73.028 5.02083 73.6426 5.375C74.2624 5.72917 74.7415 6.24219 75.0801 6.91406C75.4238 7.58594 75.5931 8.40104 75.5879 9.35937V17H72.7598V9.79687C72.7598 8.99479 72.5514 8.36719 72.1348 7.91406C71.7233 7.46094 71.153 7.23437 70.4238 7.23437C69.929 7.23437 69.4889 7.34375 69.1035 7.5625C68.7233 7.77604 68.4238 8.08594 68.2051 8.49219C67.9915 8.89844 67.8848 9.39062 67.8848 9.96875ZM83.6973 17.2344C82.5254 17.2344 81.5098 16.9766 80.6504 16.4609C79.791 15.9453 79.1243 15.224 78.6504 14.2969C78.1816 13.3698 77.9473 12.2865 77.9473 11.0469C77.9473 9.80729 78.1816 8.72135 78.6504 7.78906C79.1243 6.85677 79.791 6.13281 80.6504 5.61719C81.5098 5.10156 82.5254 4.84375 83.6973 4.84375C84.8691 4.84375 85.8848 5.10156 86.7441 5.61719C87.6035 6.13281 88.2676 6.85677 88.7363 7.78906C89.2103 8.72135 89.4473 9.80729 89.4473 11.0469C89.4473 12.2865 89.2103 13.3698 88.7363 14.2969C88.2676 15.224 87.6035 15.9453 86.7441 16.4609C85.8848 16.9766 84.8691 17.2344 83.6973 17.2344ZM83.7129 14.9687C84.3483 14.9687 84.8796 14.7943 85.3066 14.4453C85.7337 14.0911 86.0514 13.6172 86.2598 13.0234C86.4733 12.4297 86.5801 11.7682 86.5801 11.0391C86.5801 10.3047 86.4733 9.64062 86.2598 9.04687C86.0514 8.44792 85.7337 7.97135 85.3066 7.61719C84.8796 7.26302 84.3483 7.08594 83.7129 7.08594C83.0618 7.08594 82.5202 7.26302 82.0879 7.61719C81.6608 7.97135 81.3405 8.44792 81.127 9.04687C80.9186 9.64062 80.8145 10.3047 80.8145 11.0391C80.8145 11.7682 80.9186 12.4297 81.127 13.0234C81.3405 13.6172 81.6608 14.0911 82.0879 14.4453C82.5202 14.7943 83.0618 14.9687 83.7129 14.9687ZM97.082 17.2344C95.9102 17.2344 94.8945 16.9766 94.0352 16.4609C93.1758 15.9453 92.5091 15.224 92.0352 14.2969C91.5664 13.3698 91.332 12.2865 91.332 11.0469C91.332 9.80729 91.5664 8.72135 92.0352 7.78906C92.5091 6.85677 93.1758 6.13281 94.0352 5.61719C94.8945 5.10156 95.9102 4.84375 97.082 4.84375C98.2539 4.84375 99.2695 5.10156 100.129 5.61719C100.988 6.13281 101.652 6.85677 102.121 7.78906C102.595 8.72135 102.832 9.80729 102.832 11.0469C102.832 12.2865 102.595 13.3698 102.121 14.2969C101.652 15.224 100.988 15.9453 100.129 16.4609C99.2695 16.9766 98.2539 17.2344 97.082 17.2344ZM97.0977 14.9687C97.7331 14.9687 98.2643 14.7943 98.6914 14.4453C99.1185 14.0911 99.4362 13.6172 99.6445 13.0234C99.8581 12.4297 99.9648 11.7682 99.9648 11.0391C99.9648 10.3047 99.8581 9.64062 99.6445 9.04687C99.4362 8.44792 99.1185 7.97135 98.6914 7.61719C98.2643 7.26302 97.7331 7.08594 97.0977 7.08594C96.4466 7.08594 95.9049 7.26302 95.4727 7.61719C95.0456 7.97135 94.7253 8.44792 94.5117 9.04687C94.3034 9.64062 94.1992 10.3047 94.1992 11.0391C94.1992 11.7682 94.3034 12.4297 94.5117 13.0234C94.7253 13.6172 95.0456 14.0911 95.4727 14.4453C95.9049 14.7943 96.4466 14.9687 97.0977 14.9687ZM109.686 17.2109C108.743 17.2109 107.899 16.9688 107.154 16.4844C106.41 16 105.821 15.2969 105.389 14.375C104.956 13.4531 104.74 12.3333 104.74 11.0156C104.74 9.68229 104.959 8.55729 105.396 7.64062C105.839 6.71875 106.436 6.02344 107.186 5.55469C107.936 5.08073 108.771 4.84375 109.693 4.84375C110.396 4.84375 110.975 4.96354 111.428 5.20312C111.881 5.4375 112.24 5.72135 112.506 6.05469C112.771 6.38281 112.977 6.69271 113.123 6.98437H113.24V1H116.076V17H113.295V15.1094H113.123C112.977 15.401 112.766 15.7109 112.49 16.0391C112.214 16.362 111.85 16.638 111.396 16.8672C110.943 17.0964 110.373 17.2109 109.686 17.2109ZM110.475 14.8906C111.074 14.8906 111.584 14.7292 112.006 14.4062C112.428 14.0781 112.748 13.6224 112.967 13.0391C113.186 12.4557 113.295 11.776 113.295 11C113.295 10.224 113.186 9.54948 112.967 8.97656C112.753 8.40365 112.436 7.95833 112.014 7.64062C111.597 7.32292 111.084 7.16406 110.475 7.16406C109.844 7.16406 109.318 7.32812 108.896 7.65625C108.475 7.98437 108.157 8.4375 107.943 9.01562C107.73 9.59375 107.623 10.2552 107.623 11C107.623 11.75 107.73 12.4193 107.943 13.0078C108.162 13.5911 108.482 14.0521 108.904 14.3906C109.331 14.724 109.855 14.8906 110.475 14.8906ZM121.918 1V17H119.09V1H121.918ZM130.139 17.2344C128.936 17.2344 127.896 16.9844 127.021 16.4844C126.152 15.9792 125.482 15.2656 125.014 14.3437C124.545 13.4167 124.311 12.3255 124.311 11.0703C124.311 9.83594 124.545 8.7526 125.014 7.82031C125.488 6.88281 126.149 6.15365 126.998 5.63281C127.847 5.10677 128.844 4.84375 129.99 4.84375C130.73 4.84375 131.428 4.96354 132.084 5.20312C132.745 5.4375 133.329 5.80208 133.834 6.29687C134.344 6.79167 134.745 7.42187 135.037 8.1875C135.329 8.94792 135.475 9.85417 135.475 10.9062V11.7734H125.639V9.86719H132.764C132.758 9.32552 132.641 8.84375 132.412 8.42187C132.183 7.99479 131.863 7.65885 131.451 7.41406C131.045 7.16927 130.571 7.04687 130.029 7.04687C129.451 7.04687 128.943 7.1875 128.506 7.46875C128.068 7.74479 127.727 8.10937 127.482 8.5625C127.243 9.01042 127.12 9.5026 127.115 10.0391V11.7031C127.115 12.401 127.243 13 127.498 13.5C127.753 13.9948 128.11 14.375 128.568 14.6406C129.027 14.901 129.563 15.0312 130.178 15.0312C130.589 15.0312 130.962 14.974 131.295 14.8594C131.628 14.7396 131.917 14.5651 132.162 14.3359C132.407 14.1068 132.592 13.8229 132.717 13.4844L135.357 13.7812C135.191 14.4792 134.873 15.0885 134.404 15.6094C133.941 16.125 133.347 16.526 132.623 16.8125C131.899 17.0937 131.071 17.2344 130.139 17.2344ZM147.352 8.17188L144.773 8.45312C144.701 8.19271 144.573 7.94792 144.391 7.71875C144.214 7.48958 143.974 7.30469 143.672 7.16406C143.37 7.02344 143 6.95312 142.563 6.95312C141.974 6.95312 141.479 7.08073 141.078 7.33594C140.682 7.59115 140.487 7.92187 140.492 8.32812C140.487 8.67708 140.615 8.96094 140.875 9.17969C141.141 9.39844 141.578 9.57812 142.188 9.71875L144.234 10.1562C145.37 10.401 146.214 10.7891 146.766 11.3203C147.323 11.8516 147.604 12.5469 147.609 13.4062C147.604 14.1615 147.383 14.8281 146.945 15.4062C146.513 15.9792 145.911 16.4271 145.141 16.75C144.37 17.0729 143.484 17.2344 142.484 17.2344C141.016 17.2344 139.833 16.9271 138.938 16.3125C138.042 15.6927 137.508 14.8307 137.336 13.7266L140.094 13.4609C140.219 14.0026 140.484 14.4115 140.891 14.6875C141.297 14.9635 141.826 15.1016 142.477 15.1016C143.148 15.1016 143.688 14.9635 144.094 14.6875C144.505 14.4115 144.711 14.0703 144.711 13.6641C144.711 13.3203 144.578 13.0365 144.313 12.8125C144.052 12.5885 143.646 12.4167 143.094 12.2969L141.047 11.8672C139.896 11.6276 139.044 11.224 138.492 10.6562C137.94 10.0833 137.667 9.35937 137.672 8.48437C137.667 7.74479 137.867 7.10417 138.273 6.5625C138.685 6.01562 139.255 5.59375 139.984 5.29687C140.719 4.99479 141.565 4.84375 142.523 4.84375C143.93 4.84375 145.036 5.14323 145.844 5.74219C146.656 6.34115 147.159 7.15104 147.352 8.17188Z" fill="#2C2C2C"/>
</svg>
